<svg preserveAspectRatio="none" overflow="visible" style="display: block;" width="28" height="28" viewBox="0 0 28 28" fill="none" xmlns="http://www.w3.org/2000/svg">
<g id="fi_10532281">
<path id="Vector" d="M9.85839 12.6564L12.4109 15.6987H10.1224L7.56983 12.6564H9.85839ZM15.3275 19.1785L12.7776 16.1362H10.489L13.0415 19.1785H15.3275ZM9.49182 12.219L6.93928 9.17724H4.65334L7.2032 12.219H9.49182ZM18.1852 19.1785L15.6352 16.1362H13.3466L15.8992 19.1785H18.1852ZM10.4301 12.6564L12.9801 15.6987H15.2686L12.7161 12.6564H10.4301ZM20.0115 9.08269C20.1063 9.08269 20.1984 9.03347 20.2496 8.94597L21.3507 7.03847C21.425 6.90771 21.3814 6.74037 21.2508 6.6649C21.1202 6.58899 20.9512 6.63427 20.877 6.76503L19.7759 8.67253C19.6675 8.85858 19.808 9.08269 20.0115 9.08269ZM16.2935 8.08568C16.4445 8.08568 16.5649 7.96318 16.5649 7.81224V5.60997C16.5649 5.24789 16.0195 5.25172 16.0195 5.60997V7.81224C16.0195 7.96318 16.1424 8.08568 16.2935 8.08568ZM12.3347 8.94591C12.4114 9.07809 12.5837 9.12091 12.7085 9.04594C12.8391 8.97052 12.8852 8.80318 12.8084 8.67242L11.7073 6.76492C11.5289 6.45331 11.0545 6.72598 11.2362 7.03836L12.3347 8.94591ZM12.3495 12.219L9.79698 9.17724H7.51104L10.0609 12.219H12.3495ZM13.4082 19.616L15.9607 22.6582H18.2466L15.6968 19.616H13.4082ZM24.7795 19.8358L22.8718 18.735C22.7412 18.659 22.5748 18.7039 22.4979 18.8351C22.4237 18.9659 22.4672 19.1326 22.5978 19.2086L24.5055 20.3095C24.6352 20.3844 24.8022 20.3411 24.8793 20.2094C24.9562 20.0787 24.91 19.9112 24.7795 19.8358ZM22.736 11.8055C22.7821 11.8055 22.8282 11.7935 22.8717 11.7688L24.7794 10.6675C24.91 10.592 24.9561 10.4246 24.8793 10.294C24.805 10.1632 24.636 10.1184 24.5055 10.1938L22.5978 11.2953C22.358 11.4338 22.4559 11.8055 22.736 11.8055ZM16.2935 9.67058C14.78 9.67058 13.3286 10.2883 12.2774 11.3765L12.2433 11.4119L19.3688 19.9082L19.4096 19.8807C20.9597 18.8365 21.874 17.1217 21.874 15.252C21.874 12.1747 19.3709 9.67058 16.2935 9.67058ZM25.9343 14.9785H23.7322C23.5811 14.9785 23.4582 15.101 23.4582 15.252C23.4582 15.4029 23.5811 15.5254 23.7322 15.5254H25.9343C26.0854 15.5254 26.2083 15.4029 26.2083 15.252C26.2083 15.101 26.0854 14.9785 25.9343 14.9785ZM4.08159 9.17724H1.79297L4.34551 12.219H6.63145L4.08159 9.17724ZM7.0007 12.6564H4.71213L7.26467 15.6987H9.55061L7.0007 12.6564ZM9.91729 16.1362H7.6313L10.1838 19.1785H12.4698L9.91729 16.1362ZM16.2658 19.616L18.8183 22.6582H21.1043L18.5544 19.616H16.2658ZM10.5505 19.616L13.1004 22.6582H15.389L12.8365 19.616H10.5505Z" fill="#245F60"/>
</g>
</svg>
